<svg xmlns="http://www.w3.org/2000/svg" viewBox="0 0 32 32"><defs><style>.cls-1{fill:#d1e6e9;}.cls-2{fill:#a1d8df;}.cls-3{fill:#30acc2;}.cls-4{fill:#68c7d3;}</style></defs><title>Bottle Pills</title><g id="Bottle_Pills" data-name="Bottle Pills"><rect class="cls-1" x="4" y="1" width="18" height="6"/><path class="cls-2" d="M20,9V7H6V9L3.11,10.45A2,2,0,0,0,2,12.24V29a2,2,0,0,0,2,2H22a2,2,0,0,0,2-2V12.24a2,2,0,0,0-1.11-1.79Z"/><rect class="cls-3" x="5" y="14" width="16" height="14"/><rect class="cls-1" x="9" y="20" width="8" height="2"/><rect class="cls-1" x="9" y="20" width="8" height="2" transform="translate(34 8) rotate(90)"/><path class="cls-4" d="M30,27a3.92,3.92,0,0,1-.56,2A4,4,0,0,1,28,30.44,3.92,3.92,0,0,1,26,31a4,4,0,0,1-4-4,3.92,3.92,0,0,1,.56-2A4,4,0,0,1,24,23.56,3.92,3.92,0,0,1,26,23,4,4,0,0,1,30,27Z"/><path class="cls-3" d="M29.44,29A4,4,0,0,1,28,30.44L22.56,25A4,4,0,0,1,24,23.56Z"/></g></svg>