<?xml version="1.0" encoding="UTF-8"?>
<!DOCTYPE svg PUBLIC "-//W3C//DTD SVG 1.1//EN" "http://www.w3.org/Graphics/SVG/1.1/DTD/svg11.dtd">
<!-- Creator: CorelDRAW X5 -->
<svg xmlns="http://www.w3.org/2000/svg" xml:space="preserve" width="2048px" height="2048px" style="shape-rendering:geometricPrecision; text-rendering:geometricPrecision; image-rendering:optimizeQuality; fill-rule:evenodd; clip-rule:evenodd"
viewBox="0 0 2048 2048"
 xmlns:xlink="http://www.w3.org/1999/xlink">
 <defs>
  <style type="text/css">
   <![CDATA[
    .fil12 {fill:none}
    .fil7 {fill:#005E60}
    .fil1 {fill:#006064}
    .fil8 {fill:#223539}
    .fil2 {fill:#263238}
    .fil9 {fill:#4C6B74}
    .fil3 {fill:#546E7A}
    .fil6 {fill:#A0DBE0}
    .fil0 {fill:#B2EBF2}
    .fil11 {fill:#C00806}
    .fil5 {fill:#D50000}
    .fil10 {fill:#C00806;fill-rule:nonzero}
    .fil4 {fill:#D50000;fill-rule:nonzero}
   ]]>
  </style>
 </defs>
 <g id="Layer_x0020_1">
  <metadata id="CorelCorpID_0Corel-Layer"/>
  <g id="_360339712">
   <g>
    <circle class="fil0" cx="1024" cy="1024" r="672"/>
    <path class="fil1" d="M1024 256c212,0 404,86 543,225 139,139 225,331 225,543 0,212 -86,404 -225,543 -139,139 -331,225 -543,225 -212,0 -404,-86 -543,-225 -139,-139 -225,-331 -225,-543 0,-212 86,-404 225,-543 139,-139 331,-225 543,-225zm0 96c371,0 672,301 672,672 0,371 -301,672 -672,672 -371,0 -672,-301 -672,-672 0,-371 301,-672 672,-672z"/>
    <path class="fil2" d="M1024 448l0 0c10,0 18,7 18,16l0 555c0,9 -8,16 -18,16l0 0c-10,0 -18,-7 -18,-16l0 -555c0,-9 8,-16 18,-16z"/>
    <path class="fil3" d="M1003 1013l0 0c5,-9 15,-13 23,-8l393 212c8,4 10,15 5,24l0 0c-5,9 -15,13 -23,8l-393 -212c-8,-4 -10,-15 -5,-24z"/>
    <circle class="fil2" cx="1024" cy="1024" r="48"/>
    <path class="fil4" d="M527 1318c-4,2 -8,1 -10,-3 -2,-4 -1,-8 3,-10l618 -355c4,-2 8,-1 10,3 2,4 1,8 -3,10l-618 355z"/>
    <circle class="fil5" transform="matrix(0.457724 -1.69313 1.69313 0.457724 1024 1024)" r="14"/>
   </g>
   <g>
    <path class="fil6" d="M1024 352l0 0 0 1344 0 0c-371,0 -672,-301 -672,-672 0,-371 301,-672 672,-672z"/>
    <path class="fil7" d="M1024 256l0 0 0 96 0 0c-371,0 -672,301 -672,672 0,371 301,672 672,672l0 0 0 96 0 0c-212,0 -404,-86 -543,-225 -139,-139 -225,-331 -225,-543 0,-212 86,-404 225,-543 139,-139 331,-225 543,-225z"/>
    <path class="fil8" d="M1024 448l0 0 0 0 0 587 0 0 0 0c-10,0 -18,-7 -18,-16l0 -555c0,-9 8,-16 18,-16z"/>
    <path class="fil9" d="M1003 1013l0 0c4,-8 14,-12 21,-9l0 41 -16 -9c-8,-4 -10,-15 -5,-24z"/>
    <path class="fil8" d="M1024 976l0 0 0 96 0 0c-27,0 -48,-21 -48,-48 0,-27 21,-48 48,-48z"/>
    <path class="fil10" d="M527 1318c-4,2 -8,1 -10,-3 -2,-4 -1,-8 3,-10l504 -290 0 17 -497 285z"/>
    <path class="fil11" d="M1000 1018c3,-11 13,-18 24,-18l0 49c-2,0 -4,0 -6,-1 -13,-4 -21,-17 -17,-30z"/>
   </g>
  </g>
  <rect class="fil12" width="2048" height="2048"/>
 </g>
</svg>
